<?xml version="1.0" encoding="UTF-8" standalone="no"?>
<!DOCTYPE svg PUBLIC "-//W3C//DTD SVG 1.1//EN" "http://www.w3.org/Graphics/SVG/1.1/DTD/svg11.dtd">
<svg width="100%" height="100%" viewBox="0 0 500 70" version="1.1" xmlns="http://www.w3.org/2000/svg" xmlns:xlink="http://www.w3.org/1999/xlink" xml:space="preserve" xmlns:serif="http://www.serif.com/" style="fill-rule:evenodd;clip-rule:evenodd;stroke-linejoin:round;stroke-miterlimit:2;">
    <g transform="matrix(1,0,0,1,-151.955,-250)">
        <g transform="matrix(4.16667,0,0,4.16667,0,0)">
            <g transform="matrix(0.670159,0,0,0.672457,12.0291,19.5141)">
                <g transform="matrix(1,0,0,1,41.2852,61.6829)">
                    <path d="M0,22.029C0,22.99 -0.418,23.506 -1.156,23.506C-1.895,23.506 -2.313,22.99 -2.313,22.029L-2.313,8.157L-3.818,8.157C-4.591,8.157 -4.816,7.578 -4.816,7.193C-4.816,6.809 -4.591,6.23 -3.818,6.23L-2.313,6.23L-2.313,1.832C-2.313,-0.481 -0.964,-1.477 0.74,-1.477L1.925,-1.477C3.018,-1.477 3.5,-0.995 3.5,-0.416C3.5,0.16 3.212,0.641 2.283,0.641L1.222,0.641C0.482,0.641 0,1.126 0,1.704L0,6.23L2.054,6.23C2.828,6.23 3.054,6.809 3.054,7.193C3.054,7.578 2.828,8.157 2.054,8.157L0,8.157L0,22.029Z" style="fill:white;fill-rule:nonzero;"/>
                </g>
                <g transform="matrix(1,0,0,1,47.8037,69.1989)">
                    <path d="M0,14.513C0,15.474 -0.417,15.99 -1.154,15.99C-1.895,15.99 -2.313,15.474 -2.313,14.513L-2.313,-0.001C-2.313,-0.965 -1.895,-1.477 -1.154,-1.477C-0.417,-1.477 0,-0.965 0,-0.001L0,1.604L0.064,1.604C0.901,-0.29 2.377,-1.477 3.82,-1.477C4.915,-1.477 5.363,-0.87 5.363,-0.226C5.363,0.415 4.915,0.77 3.789,1.027C2.504,1.315 0,2.409 0,6.196L0,14.513Z" style="fill:white;fill-rule:nonzero;"/>
                </g>
                <g transform="matrix(1,0,0,1,64.9512,77.3557)">
                    <path d="M0,-1.802C-0.098,-4.658 -1.703,-7.707 -4.818,-7.707C-7.933,-7.707 -9.536,-4.658 -9.636,-1.802L0,-1.802ZM-9.636,0.125C-9.536,3.115 -7.514,5.906 -4.56,5.906C-0.901,5.906 0.063,3.272 1.155,3.272C1.796,3.272 2.246,3.499 2.246,4.396C2.246,5.424 -0.419,7.833 -4.4,7.833C-9.856,7.833 -12.138,3.402 -12.138,-0.901C-12.138,-5.203 -9.604,-9.635 -4.786,-9.635C0.031,-9.635 2.504,-5.589 2.504,-1.287C2.504,-0.676 2.313,0.125 0.931,0.125L-9.636,0.125Z" style="fill:white;fill-rule:nonzero;"/>
                </g>
                <g transform="matrix(1,0,0,1,80.332,77.3557)">
                    <path d="M0,-1.802C-0.097,-4.658 -1.703,-7.707 -4.818,-7.707C-7.933,-7.707 -9.539,-4.658 -9.636,-1.802L0,-1.802ZM-9.636,0.125C-9.539,3.115 -7.515,5.906 -4.563,5.906C-0.899,5.906 0.063,3.272 1.156,3.272C1.798,3.272 2.25,3.499 2.25,4.396C2.25,5.424 -0.417,7.833 -4.4,7.833C-9.858,7.833 -12.138,3.402 -12.138,-0.901C-12.138,-5.203 -9.602,-9.635 -4.786,-9.635C0.031,-9.635 2.504,-5.589 2.504,-1.287C2.504,-0.676 2.311,0.125 0.929,0.125L-9.636,0.125Z" style="fill:white;fill-rule:nonzero;"/>
                </g>
                <g transform="matrix(1,0,0,1,91.5669,62.1337)">
                    <path d="M0,21.127C3.597,21.127 4.818,17.434 4.818,14.321C4.818,11.206 3.597,7.514 0,7.514C-3.498,7.514 -4.847,11.206 -4.847,14.321C-4.847,17.434 -3.594,21.127 0,21.127M4.818,-0.45C4.818,-1.412 5.235,-1.927 5.976,-1.927C6.712,-1.927 7.13,-1.412 7.13,-0.45L7.13,21.577C7.13,22.538 6.712,23.054 5.976,23.054C5.235,23.054 4.818,22.538 4.818,21.577L4.818,20.517L4.723,20.517C3.694,22.187 1.991,23.054 0,23.054C-4.91,23.054 -7.351,19.135 -7.351,14.321C-7.351,10.018 -5.005,5.587 -0.062,5.587C1.93,5.587 3.405,6.421 4.723,8.123L4.818,8.123L4.818,-0.45Z" style="fill:white;fill-rule:nonzero;"/>
                </g>
                <g transform="matrix(1,0,0,1,107.496,69.6477)">
                    <path d="M0,13.613C3.597,13.613 4.848,9.92 4.848,6.807C4.848,3.692 3.597,0 0,0C-3.594,0 -4.85,3.692 -4.85,6.807C-4.85,9.92 -3.594,13.613 0,13.613M0,15.54C-4.913,15.54 -7.354,11.621 -7.354,6.807C-7.354,2.504 -5.008,-1.927 0,-1.927C5.042,-1.927 7.354,2.504 7.354,6.807C7.354,11.621 4.913,15.54 0,15.54" style="fill:white;fill-rule:nonzero;"/>
                </g>
                <g transform="matrix(1,0,0,1,128.686,69.1989)">
                    <path d="M0,14.513C0,15.474 -0.416,15.99 -1.156,15.99C-1.891,15.99 -2.312,15.474 -2.312,14.513L-2.312,5.103C-2.312,1.347 -4.366,0.641 -6.163,0.641C-8.026,0.641 -10.081,2.183 -10.081,5.103L-10.081,14.513C-10.081,15.474 -10.498,15.99 -11.237,15.99C-11.977,15.99 -12.395,15.474 -12.395,14.513L-12.395,-0.001C-12.395,-0.965 -11.977,-1.477 -11.237,-1.477C-10.498,-1.477 -10.081,-0.965 -10.081,-0.001L-10.081,0.834L-10.018,0.834C-9.149,-0.419 -7.736,-1.477 -5.551,-1.477C-3.563,-1.477 -1.83,-0.354 -1.058,1.508C0.1,-0.452 2.12,-1.477 3.95,-1.477C6.971,-1.477 10.084,0.544 10.084,4.623L10.084,14.513C10.084,15.474 9.665,15.99 8.93,15.99C8.191,15.99 7.773,15.474 7.773,14.513L7.773,5.103C7.773,1.347 5.714,0.641 3.918,0.641C2.055,0.641 0,2.183 0,5.103L0,14.513Z" style="fill:white;fill-rule:nonzero;"/>
                </g>
                <g transform="matrix(1,0,0,1,174.017,64.1259)">
                    <path d="M0,19.586C0,20.547 -0.42,21.063 -1.156,21.063C-1.896,21.063 -2.313,20.547 -2.313,19.586L-2.313,5.716L-3.823,5.716C-4.593,5.716 -4.816,5.135 -4.816,4.75C-4.816,4.366 -4.593,3.787 -3.823,3.787L-2.313,3.787L-2.313,0.03C-2.313,-0.966 -1.896,-1.477 -1.156,-1.477C-0.42,-1.477 0,-0.966 0,0.03L0,3.787L1.507,3.787C2.279,3.787 2.502,4.366 2.502,4.75C2.502,5.135 2.279,5.716 1.507,5.716L0,5.716L0,19.586Z" style="fill:white;fill-rule:nonzero;"/>
                </g>
                <g transform="matrix(1,0,0,1,179.859,69.1989)">
                    <path d="M0,14.513C0,15.474 -0.419,15.99 -1.154,15.99C-1.895,15.99 -2.312,15.474 -2.312,14.513L-2.312,-0.001C-2.312,-0.965 -1.895,-1.477 -1.154,-1.477C-0.419,-1.477 0,-0.965 0,-0.001L0,1.604L0.064,1.604C0.9,-0.29 2.377,-1.477 3.818,-1.477C4.911,-1.477 5.36,-0.868 5.36,-0.224C5.36,0.415 4.911,0.77 3.788,1.027C2.503,1.315 0,2.409 0,6.196L0,14.513Z" style="fill:white;fill-rule:nonzero;"/>
                </g>
                <g transform="matrix(1,0,0,1,197.006,77.3557)">
                    <path d="M0,-1.802C-0.101,-4.657 -1.703,-7.707 -4.816,-7.707C-7.934,-7.707 -9.536,-4.657 -9.633,-1.802L0,-1.802ZM-9.633,0.125C-9.536,3.115 -7.514,5.906 -4.561,5.906C-0.9,5.906 0.065,3.272 1.156,3.272C1.796,3.272 2.246,3.499 2.246,4.398C2.246,5.424 -0.416,7.833 -4.4,7.833C-9.86,7.833 -12.14,3.402 -12.14,-0.901C-12.14,-5.203 -9.601,-9.635 -4.784,-9.635C0.032,-9.635 2.505,-5.589 2.505,-1.285C2.505,-0.676 2.312,0.125 0.932,0.125L-9.633,0.125Z" style="fill:white;fill-rule:nonzero;"/>
                </g>
                <g transform="matrix(1,0,0,1,213.028,77.3557)">
                    <path d="M0,-1.802C-0.095,-4.657 -1.704,-7.707 -4.819,-7.707C-7.933,-7.707 -9.538,-4.657 -9.634,-1.802L0,-1.802ZM-9.634,0.125C-9.538,3.115 -7.514,5.906 -4.56,5.906C-0.901,5.906 0.064,3.272 1.158,3.272C1.798,3.272 2.248,3.499 2.248,4.398C2.248,5.424 -0.419,7.833 -4.399,7.833C-9.857,7.833 -12.138,3.402 -12.138,-0.901C-12.138,-5.203 -9.6,-9.635 -4.787,-9.635C0.032,-9.635 2.503,-5.589 2.503,-1.285C2.503,-0.676 2.314,0.125 0.933,0.125L-9.634,0.125Z" style="fill:white;fill-rule:nonzero;"/>
                </g>
                <g transform="matrix(1,0,0,1,165.663,71.2679)">
                    <path d="M0,2.858L-1.246,3.644L-1.08,3.813C-1.048,3.846 -1.036,3.894 -1.05,3.938C-1.063,3.982 -1.1,4.015 -1.145,4.024L-2.896,4.367L-1.897,5.147C-1.862,5.174 -1.845,5.219 -1.851,5.263C-1.857,5.307 -1.887,5.345 -1.928,5.362L-2.096,5.429L-1.557,6.464C-1.532,6.509 -1.539,6.564 -1.571,6.603C-1.596,6.631 -1.631,6.647 -1.667,6.647C-1.68,6.647 -1.693,6.645 -1.706,6.641L-2.767,6.296L-2.804,6.489C-2.813,6.532 -2.842,6.567 -2.882,6.582C-2.921,6.597 -2.966,6.591 -3.002,6.565L-4.259,5.622L-4.54,6.01C-4.58,6.066 -4.66,6.078 -4.714,6.039C-4.832,5.955 -4.95,5.861 -5.063,5.758C-5.16,5.662 -5.219,5.648 -5.32,5.712C-5.408,5.758 -5.494,5.793 -5.582,5.819C-5.616,5.827 -5.651,5.825 -5.683,5.805C-5.712,5.788 -5.733,5.757 -5.74,5.722C-5.758,5.629 -5.775,5.536 -5.792,5.443C-5.826,5.254 -5.859,5.07 -5.903,4.887C-5.978,4.651 -5.938,4.393 -5.8,4.186L-7.05,4.431C-7.125,4.44 -7.185,4.4 -7.197,4.333L-7.26,4.014C-7.266,3.981 -7.259,3.948 -7.24,3.92C-7.222,3.892 -7.193,3.874 -7.161,3.867L-5.9,3.621C-5.929,3.6 -5.957,3.579 -5.984,3.557C-6.087,3.474 -6.166,3.367 -6.214,3.246C-6.29,2.997 -6.352,2.749 -6.413,2.503L-6.485,2.215C-6.494,2.182 -6.488,2.147 -6.47,2.118C-6.451,2.088 -6.422,2.068 -6.389,2.061C-6.324,2.049 -6.258,2.042 -6.192,2.035C-6.072,2.022 -5.96,2.01 -5.899,1.963C-5.834,1.914 -5.781,1.799 -5.726,1.679C-5.695,1.615 -5.665,1.549 -5.631,1.488C-5.613,1.456 -5.583,1.433 -5.547,1.426C-5.517,1.419 -5.476,1.426 -5.445,1.449L-5.056,1.747L-4.236,0.356C-4.214,0.318 -4.168,0.294 -4.129,0.295C-4.087,0.295 -4.048,0.316 -4.024,0.351L-3.921,0.507L-3.045,-0.243C-3.007,-0.277 -2.952,-0.281 -2.906,-0.259C-2.861,-0.236 -2.835,-0.187 -2.84,-0.136L-2.949,1.046L-2.779,1.045C-2.728,1.04 -2.693,1.067 -2.67,1.105C-2.647,1.143 -2.646,1.191 -2.668,1.23L-3.271,2.326L-1.56,1.989C-1.511,1.984 -1.47,1.997 -1.44,2.03C-1.411,2.064 -1.402,2.111 -1.417,2.154L-1.5,2.387L-0.046,2.629C0.005,2.637 0.046,2.677 0.056,2.728C0.066,2.779 0.044,2.831 0,2.858M-8.479,-1.914L-8.771,-2.21C-8.794,-2.234 -8.807,-2.266 -8.807,-2.299C-8.807,-2.332 -8.793,-2.364 -8.77,-2.387L-7.538,-3.599C-7.611,-3.601 -7.683,-3.605 -7.754,-3.611C-7.916,-3.627 -8.069,-3.683 -8.2,-3.774C-8.455,-3.985 -8.697,-4.206 -8.931,-4.421L-9.216,-4.681C-9.241,-4.704 -9.256,-4.737 -9.257,-4.771C-9.258,-4.805 -9.244,-4.838 -9.22,-4.863C-9.16,-4.921 -9.095,-4.976 -9.029,-5.03C-8.907,-5.13 -8.792,-5.225 -8.757,-5.328C-8.721,-5.436 -8.745,-5.599 -8.771,-5.773C-8.784,-5.86 -8.798,-5.95 -8.806,-6.039C-8.809,-6.076 -8.795,-6.111 -8.77,-6.137C-8.744,-6.163 -8.708,-6.172 -8.672,-6.174L-8.005,-6.128L-8.114,-8.233C-8.116,-8.277 -8.096,-8.318 -8.061,-8.342C-8.025,-8.367 -7.98,-8.371 -7.94,-8.355L-7.682,-8.245L-7.266,-9.704C-7.252,-9.752 -7.209,-9.788 -7.159,-9.793C-7.101,-9.804 -7.06,-9.772 -7.035,-9.728L-6.299,-8.352L-6.086,-8.496C-6.048,-8.522 -6,-8.526 -5.962,-8.505C-5.922,-8.487 -5.895,-8.448 -5.891,-8.403L-5.756,-6.731L-4.109,-8.352C-4.077,-8.384 -4.03,-8.394 -3.987,-8.383C-3.944,-8.371 -3.911,-8.337 -3.9,-8.293L-3.813,-7.946L-2.05,-8.731C-2.003,-8.751 -1.948,-8.743 -1.91,-8.705C-1.874,-8.668 -1.863,-8.613 -1.885,-8.565L-2.681,-6.805L-2.34,-6.733C-2.295,-6.723 -2.259,-6.69 -2.246,-6.646C-2.233,-6.602 -2.246,-6.554 -2.278,-6.522L-3.962,-4.864L-2.269,-4.729C-2.224,-4.725 -2.185,-4.698 -2.165,-4.658C-2.146,-4.618 -2.15,-4.57 -2.176,-4.533L-2.329,-4.311L-0.986,-3.567C-0.941,-3.542 -0.917,-3.494 -0.923,-3.443C-0.929,-3.392 -0.965,-3.35 -1.014,-3.337L-2.43,-2.947L-2.317,-2.675C-2.301,-2.635 -2.306,-2.59 -2.331,-2.555C-2.356,-2.52 -2.398,-2.502 -2.44,-2.502L-4.486,-2.626L-4.515,-1.975C-4.518,-1.907 -4.566,-1.849 -4.645,-1.856C-4.836,-1.863 -5.026,-1.88 -5.211,-1.908C-5.396,-1.945 -5.484,-1.907 -5.555,-1.756C-5.612,-1.652 -5.678,-1.557 -5.754,-1.466C-5.776,-1.439 -5.81,-1.423 -5.845,-1.421L-5.85,-1.421C-5.883,-1.421 -5.915,-1.435 -5.938,-1.458C-6.027,-1.549 -6.114,-1.64 -6.2,-1.73C-6.371,-1.908 -6.532,-2.076 -6.704,-2.236C-6.967,-2.451 -7.105,-2.784 -7.075,-3.121L-8.302,-1.913C-8.351,-1.863 -8.43,-1.866 -8.479,-1.914M-11.968,-5.874L-12.918,-4.857L-12.697,-4.697C-12.662,-4.671 -12.643,-4.629 -12.646,-4.586C-12.648,-4.543 -12.674,-4.505 -12.712,-4.485L-14.428,-3.57L-14.13,-3.033C-14.097,-2.973 -14.118,-2.897 -14.178,-2.864C-14.328,-2.778 -14.492,-2.697 -14.664,-2.623C-14.833,-2.561 -14.882,-2.489 -14.863,-2.335C-14.858,-2.218 -14.864,-2.109 -14.88,-1.999C-14.886,-1.964 -14.905,-1.933 -14.935,-1.913C-14.964,-1.893 -15.001,-1.887 -15.034,-1.896C-15.15,-1.924 -15.265,-1.954 -15.379,-1.985C-15.602,-2.042 -15.821,-2.1 -16.043,-2.146C-16.358,-2.188 -16.634,-2.384 -16.781,-2.668L-17.171,-1.092C-17.179,-1.06 -17.199,-1.033 -17.228,-1.015C-17.247,-1.003 -17.27,-0.997 -17.292,-0.997C-17.302,-0.997 -17.312,-0.998 -17.322,-1.001L-17.706,-1.097C-17.772,-1.114 -17.813,-1.181 -17.797,-1.248L-17.406,-2.829C-17.461,-2.797 -17.518,-2.767 -17.574,-2.739C-17.714,-2.671 -17.869,-2.639 -18.021,-2.648C-18.329,-2.692 -18.632,-2.75 -18.925,-2.808C-19.049,-2.831 -19.173,-2.856 -19.296,-2.878C-19.33,-2.885 -19.359,-2.905 -19.378,-2.934C-19.397,-2.962 -19.403,-2.997 -19.395,-3.031C-19.376,-3.109 -19.35,-3.186 -19.323,-3.261C-19.274,-3.403 -19.229,-3.537 -19.252,-3.635C-19.275,-3.741 -19.377,-3.861 -19.484,-3.989C-19.538,-4.053 -19.594,-4.119 -19.644,-4.187C-19.665,-4.216 -19.673,-4.254 -19.665,-4.289C-19.656,-4.325 -19.633,-4.355 -19.601,-4.371L-19.043,-4.663L-20.175,-6.312C-20.2,-6.347 -20.204,-6.393 -20.187,-6.432C-20.17,-6.472 -20.133,-6.499 -20.091,-6.506L-19.833,-6.543L-20.22,-7.929C-20.233,-7.978 -20.216,-8.031 -20.176,-8.061C-20.136,-8.092 -20.081,-8.097 -20.036,-8.07L-18.759,-7.323L-18.662,-7.539C-18.644,-7.58 -18.605,-7.609 -18.561,-7.613C-18.515,-7.623 -18.473,-7.598 -18.447,-7.563L-17.512,-6.284L-16.986,-8.407C-16.976,-8.45 -16.942,-8.485 -16.899,-8.496C-16.856,-8.508 -16.811,-8.497 -16.778,-8.466L-16.538,-8.232L-15.504,-9.74C-15.474,-9.783 -15.422,-9.805 -15.371,-9.79C-15.32,-9.779 -15.283,-9.737 -15.276,-9.685L-15.047,-7.87L-14.742,-7.978C-14.699,-7.994 -14.65,-7.984 -14.616,-7.953C-14.582,-7.921 -14.567,-7.874 -14.579,-7.83L-15.116,-5.66L-13.686,-6.387C-13.647,-6.407 -13.599,-6.406 -13.561,-6.38C-13.523,-6.356 -13.502,-6.314 -13.504,-6.269L-13.518,-6.018L-12.065,-6.084C-12.01,-6.076 -11.968,-6.058 -11.946,-6.012C-11.925,-5.965 -11.934,-5.912 -11.968,-5.874M0.623,-11.025L-22.842,-11.025C-23.237,-11.025 -23.562,-10.701 -23.562,-10.305L-23.562,13.164C-23.562,13.559 -23.237,13.883 -22.842,13.883L-20.385,13.883L-18.33,10.222C-18.555,10.29 -18.784,10.347 -19.014,10.392C-19.306,10.445 -19.604,10.424 -19.882,10.33C-20.463,10.074 -21.037,9.787 -21.593,9.509C-21.819,9.396 -22.045,9.284 -22.27,9.173C-22.301,9.158 -22.324,9.131 -22.334,9.098C-22.345,9.065 -22.341,9.03 -22.323,9C-22.245,8.86 -22.152,8.725 -22.062,8.596C-21.876,8.325 -21.699,8.068 -21.687,7.822C-21.675,7.569 -21.816,7.259 -21.967,6.931C-22.037,6.777 -22.109,6.618 -22.17,6.458C-22.183,6.423 -22.18,6.385 -22.162,6.354C-22.145,6.322 -22.114,6.299 -22.079,6.292L-20.665,5.989L-22.049,1.955C-22.062,1.914 -22.055,1.868 -22.027,1.835C-22,1.801 -21.958,1.78 -21.915,1.79L-21.233,1.877L-21.235,-1.236C-21.235,-1.287 -21.204,-1.332 -21.157,-1.352C-21.111,-1.371 -21.057,-1.359 -21.021,-1.323L-18.798,0.971L-18.39,0.48C-18.362,0.447 -18.316,0.429 -18.273,0.437C-18.229,0.444 -18.192,0.474 -18.177,0.516L-16.93,3.836L-14.573,-0.331C-14.552,-0.371 -14.511,-0.395 -14.466,-0.395L-14.465,-0.395C-14.42,-0.395 -14.379,-0.371 -14.356,-0.332L-13.933,0.401L-10.925,-2.121C-10.886,-2.156 -10.828,-2.161 -10.784,-2.135C-10.738,-2.11 -10.714,-2.059 -10.721,-2.007L-11.293,1.884L-10.464,1.827C-10.421,1.827 -10.373,1.845 -10.35,1.885C-10.325,1.924 -10.323,1.973 -10.347,2.013L-12.755,6.273L-9.231,5.564C-9.188,5.553 -9.143,5.57 -9.113,5.603C-9.084,5.637 -9.074,5.683 -9.089,5.726L-9.3,6.354L-6.239,7.061C-6.189,7.073 -6.152,7.113 -6.145,7.164C-6.136,7.213 -6.159,7.263 -6.202,7.29L-8.778,8.86L-8.335,9.417C-8.308,9.451 -8.301,9.496 -8.314,9.537C-8.329,9.577 -8.363,9.607 -8.405,9.617L-12.446,10.513L-12.121,11.874C-12.104,11.941 -12.146,12.007 -12.212,12.024C-12.566,12.112 -12.932,12.18 -13.296,12.229C-13.721,12.263 -13.906,12.423 -13.965,12.801C-14.017,13.02 -14.087,13.227 -14.175,13.425C-14.189,13.458 -14.217,13.482 -14.25,13.494C-14.282,13.504 -14.319,13.501 -14.351,13.483C-14.564,13.362 -14.774,13.24 -14.983,13.118C-15.404,12.872 -15.802,12.639 -16.218,12.427C-16.864,12.151 -17.304,11.537 -17.358,10.829C-17.362,10.782 -17.367,10.734 -17.37,10.686L-19.163,13.883L0.623,13.883C1.019,13.883 1.343,13.559 1.343,13.164L1.343,-10.305C1.343,-10.701 1.019,-11.025 0.623,-11.025" style="fill:white;"/>
                </g>
            </g>
        </g>
    </g>
</svg>
